<svg xmlns="http://www.w3.org/2000/svg" id="Layer_1" data-name="Layer 1" viewBox="0 0 178.3978 189.2065"><title>logo</title><path d="M49.2043,54.6544c0.3431,1.48,2.7765,3.1907,2.7295-.26-0.0051-.3431-0.9467-1.0115-0.967-1.6214a1.7147,1.7147,0,0,1,.9467-1.657,2.129,2.129,0,0,1,1.028.0089q0.6176,1.2465,2.14-.0928a1.1349,1.1349,0,0,0-1.2885-1.3571,4.9488,4.9488,0,0,0-1.6151-.0762,0.2946,0.2946,0,0,1-.2732-0.1754c-0.5947-1.3812-.4625-1.3647.371-2.258,0.4041-.4333,1.07-0.5019,1.4613-0.9047,1.7192-1.7663.7078-1.8539-.21-3.042-1.8387-2.38-2.15-4.5478.4117-6.5644,0.3139-.2465,1.0115-0.0089.5566,0.3494-4.6279,3.6431.9746,4.6495,1.06,7.7029,0.0445,1.5439-.9378,1.44-1.9175,2.2695-3.8261,3.2441,4.7321,1.2,2.02,4.882-0.826,1.1233-1.6074.4829-2.6672,0.521a1.2368,1.2368,0,0,1-.1423-0.0889q-0.36-.751-0.7116-0.07-0.7967.52,0.1105,1.3774c0.29,0.8056,1.6023.7129,1.4257,1.962-0.3914,2.77-4.8286,1.4613-5.3229-.676-0.0864-.3723.77-0.5934,0.8539-0.2287m-7.891,6.4615c2.5452,1.7231,4.361,1.2859,6.3369-.3266,2.1233-1.7345,8.3548-2.6011,9.06-11.6942a37.6415,37.6415,0,0,0-.8234-7.0219c-0.4333-2.2974.6061-5.5923,1.2072-7.1959a3.9058,3.9058,0,0,1,1.3635-1.6151l0.0064-.0089c0.9873-1.211-.7306-1.3457-0.765-1.3482-5.2226.1334-10.0309,0.9822-12.9941,4.1933C40.2116,40.9665,40.4,48.672,40.03,56.3572h0.0013s-0.1728,3.5643,1.2821,4.7587" transform="translate(-10.8011 -5.3971)" style="fill:#fff"/><path d="M114.0376,41.0781c1.6379-3.08-1.4562-5.9456-2.7206-5.1412s-1.934,3.86-1.1284,5.31,3.2886,0.8857,3.8489-.169" transform="translate(-10.8011 -5.3971)" style="fill:#fff"/><path d="M97.6725,46.2975c-1.7091-.8628-3.9989-0.7472-4.281.26s1.0623,3.2835,2.8184,3.8032a2.9937,2.9937,0,0,0,3.7053-1.7879c0.521-1.3-1.4384-1.8692-2.2428-2.2758" transform="translate(-10.8011 -5.3971)" style="fill:#fff"/><path d="M79.3663,56.9836c-2.3953-.46-3.0115-2.8184-3.7676-3.9112s-2.5376-2.7028-3.2288,0a4.3909,4.3909,0,0,0,2.934,5.004c2.3,0.5744,3.9671,1.15,4.7155.3444s1.7421-.9772-0.6531-1.4372" transform="translate(-10.8011 -5.3971)" style="fill:#fff"/><path d="M78.2365,60.8365c-3.4512.46-5.6355-2.3571-7.5339-4.7651s-0.1144-4.3216,1.38-5.2416c1.2122-.7459,2.2733-0.6595,3.52,1.0521a13.0216,13.0216,0,0,1,.9085,1.4791,5.7059,5.7059,0,0,0,4.4284,3.22c9.1439,2.4728.7472,3.7956-2.7028,4.2556m3.8616-5.5517c-4.3915-2.8349-5.004-7.2277-6.9494-7.8389s-5.17,1.9454-7.0612,5.8935,2.7244,7.3942,7.34,9.7843,12.1758-1.1119,12.1758-1.1119c2.6951-1.0013,4.0027-2.4461,3.28-3.9468s-4.3915.0546-8.7843-2.78" transform="translate(-10.8011 -5.3971)" style="fill:#fff"/><path d="M117.1166,57.7794a5.5689,5.5689,0,0,0-2.4766.7612,1.6707,1.6707,0,0,0-.52.5934,12.1886,12.1886,0,0,0-.8806,2.4054c-0.2249.6506-.29,1.4956,0.8806,1.6252s1.59-.845,2.4855-1.43,1.6112-2.8769,1.6112-3.1945-0.1194-.75-1.1-0.7612" transform="translate(-10.8011 -5.3971)" style="fill:#fff"/><path d="M102.3752,22.84l0.0038,0.0064a9.4312,9.4312,0,0,1,2.272,3.2136c1.5807,3.4042-1.521,11.7183-.78,14.5545a2.9216,2.9216,0,0,0,.5057.9632,10.4809,10.4809,0,0,0,2.056.2059c0.92-.0623,1.6557-1.1652,1.3393-2.8908a9.57,9.57,0,0,1-.216-1.9315,1.5225,1.5225,0,0,1-1.1919-.6913c-0.39-.7484-0.2275-2.4385-0.26-3.1539s0.6582-2.0064.54-4.58a14.6808,14.6808,0,0,0-1.0928-5.1082A4.3815,4.3815,0,0,0,104.59,22.18a2.7106,2.7106,0,0,0-1.76-.4663c-0.0191.0038-.0381,0.0089-0.0572,0.0127a0.6417,0.6417,0,0,0-.3977,1.1131" transform="translate(-10.8011 -5.3971)" style="fill:#fff"/><path d="M82.0672,31.1827l-0.0076.0025c1.1856,1.028.934,2.6316,0.582,3.6787a0.3088,0.3088,0,0,1-.59-0.0013,2.5168,2.5168,0,0,0-1.8489-1.8654c-2.08-.521-6.2416,1.8578-1.7332,5.3255,2.6837,2.0649,6.3052-.5108,7.8453-2.3406,2.4245-2.8781,2.0255-3.8781.8679-6.51-0.7141-1.7841-2.7282-.7192-2.7282-0.7192l-0.0025-.0025c-0.4752.216-.9454,0.4257-1.4143,0.6315L83.02,29.391c-1.7536.7751-.953,1.7917-0.953,1.7917" transform="translate(-10.8011 -5.3971)" style="fill:#fff"/><path d="M123.6026,48.9328c-0.3888,1.5248-3.732,1.22-4.915-1.5668s-1.0991-9.4247.582-6.9812c0,0-.122,1.28,2.0407,3.5427s4.8134,1.3571,5.46,2.2631-2.78,1.2161-3.1678,2.7422m-2.5223,9.65c-0.69,2.1564-1.2072,5.6876-1.8539,5.5389a1.8612,1.8612,0,0,1-1.1919-.8755,4.4781,4.4781,0,0,1-2.9594,1.5655c-1.643-.0635-2.43-0.2579-3.2-1.0991a4.5808,4.5808,0,0,1-.7383-3.103c0.0432-.7116,1.5731-3.0395,1.4727-3.3623,0,0,2.8159-1.8755,4.3648-1.6328a5.4578,5.4578,0,0,1,3.0179,1.8654,11.6957,11.6957,0,0,0,.01-2.6723,3.93,3.93,0,0,0-.6036-1.54,1.2786,1.2786,0,0,0-.7332-0.8056,9.3509,9.3509,0,0,0-1.5795-.3622c0.0254,0.1919.0508,0.399,0.0712,0.5858a0.6891,0.6891,0,0,1-.0864.582,0.6628,0.6628,0,0,1-.3444.3723,0.4043,0.4043,0,0,1-.3876,0,0.9226,0.9226,0,0,1-.1957-0.7383,1.5326,1.5326,0,0,0-.1931-0.59c-0.01-.0762-0.01-0.3431-0.0076-0.6023a6.0945,6.0945,0,0,0-1.4359-.6036,3.5771,3.5771,0,0,1,.0216.5159,2.7938,2.7938,0,0,0,.13.6036,0.4662,0.4662,0,0,1-.3024.6036c-0.2579.1715-.3444,0-0.4956-0.1436s0.0216-.202,0-0.4168a3.1438,3.1438,0,0,0-.1728-0.6036,2.5693,2.5693,0,0,1-.0229-0.6c-0.6557-.02-1.5439-0.2364-1.7663-0.1792a2.11,2.11,0,0,0-.7319,0c-0.3024.1538-1.6379,1.1449-1.6379,1.1449s-0.1169.1207-.2948,0.3075c0.0419,0.0559.0826,0.1105,0.1105,0.1563a3.1066,3.1066,0,0,1,.2592.7726,4.167,4.167,0,0,1,.1944,1.2961c0,0.5172,0,.582-0.3558.6544s-0.4524-.0724-0.6036-0.41a0.7707,0.7707,0,0,1,0-.6,2.1266,2.1266,0,0,0-.2694-0.6468,1.4,1.4,0,0,0-.1588-0.3431c-0.399.4346-.8272,0.9124-1.15,1.3075a2.2109,2.2109,0,0,1,.1766.4587,3.0288,3.0288,0,0,0,.3888.873,1.0267,1.0267,0,0,1-.1626.9848,2.1128,2.1128,0,0,1-.6137.4054,4.1964,4.1964,0,0,1-.2592-1.0026,0.7452,0.7452,0,0,0-.2783-0.5006c-0.1474.2668-.2592,0.4257-0.2592,0.4257a2.5669,2.5669,0,0,0-.69,1.5515c0.0864,0.69.6036,1.4219,0.69,2.0255s0.3012,1.164.3876,1.6811,0.4308,1.5007.0432,1.6341a2.8924,2.8924,0,0,1-1.3368.1766c-0.3444-.0864-0.0864-1.4562-0.0864-1.4562-0.4308-1.56-1.164-3.5872-.9911-4.7511s4.7422-6.0777,5.2162-6.5949a2.2555,2.2555,0,0,1,1.8959-.873c0.8628,0.0546,8.32,1.6951,8.8377,2.2542a11.0819,11.0819,0,0,1,.8615,6.7652M102.3884,46.8361c-0.7484.4752,0.5439,3.3839-1.352,4.117s-6.4666,2.0115-8.0613-1.3215-2.22-6.2975.83-6.2594,4.6876,1.33,5.5072.9429-0.3024-1.38-.6468-3.4919a6.2206,6.2206,0,0,1-1.0991,0c-0.3876-.02-0.906-0.1842-1.1207-0.1779a4.0137,4.0137,0,0,1-1.1208.1779,2.222,2.222,0,0,0-.7548,0c-0.4308,0-.8183.0064-1.0775,0.0254a3.9548,3.9548,0,0,0-1.3355,0,15.6533,15.6533,0,0,1-2.8235.0013s-0.1512.1131-.41-0.2046a0.6493,0.6493,0,0,1,.1944-0.4892,5.2807,5.2807,0,0,1,1.66-.2592c0.13,0,2.7587.0648,2.9963,0.0864s0.6252,0.0432.8831,0.0432,2.1119-.1931,2.35-0.13a13.324,13.324,0,0,1,1.5083-.0127c0.0178,0.0063.0407,0.0114,0.0584,0.0165-0.0877-1.8971.4181-3.79,1.0839-2.5693,0,0,.6087,4.1387,2.2873,6.2073,0.9962,1.2288,4.0128,2.8209,6.3,3.9125a1.05,1.05,0,0,1-.44,1.995,3.3109,3.3109,0,0,1-1.4981-.2491c-1.6379-.7764-3.1678-2.8349-3.9175-2.361m62.7138-15.5406a32.49,32.49,0,0,1-9.4565-2.68,11.1941,11.1941,0,0,1-3.178-2.3343,15.098,15.098,0,0,0,6.8071-6.4411c1.8146-3.5973-.48-6.8783-2.0179-8.5225a0.4,0.4,0,0,0-.6862.33c0.2224,1.3812.0063,3.6748-2.4575,6.5148-1.7447,2.01-11.8645,3.51-12.5748,3.408-2.9505-.4219-10.4845-2.6164-12.7527-4.6914-3.6621-3.3521-1.0877-8.3014.7294-10.9051a0.3665,0.3665,0,0,0-.51-0.51c-3.5414,2.4639-10.6357,8.0765-8.1553,11.9826a51.04,51.04,0,0,0,6.3776,7.7372c-0.432.1156-.87,0.2287-1.31,0.3406a26.6178,26.6178,0,0,0-18.3653-4.4716,0.7492,0.7492,0,0,0-.4181,1.2453l-0.0127.0051c0.0356,0.0623.0864,0.1271,0.1156,0.1881a13.3653,13.3653,0,0,1,.8463,3.0395,7.4272,7.4272,0,0,1,.4854,2.91c-0.13,1.164-.5172,2.3279-0.5172,3.2644s-0.2592,1.6176-.1944,2.2631a1.99,1.99,0,0,0,.8094,1.4041,3.9435,3.9435,0,0,1,.8755-0.9886c1.6316-1.3546,4.1895.5337,5.6266,1.6036s1.0318,3.8985.3927,5.3306-2.6519,2.9569-3.5973,2.8044-2.3775-1.0979-3.43-.8094a1.4882,1.4882,0,0,0-.873.5655c2.0966,1.5566,4.4525,2.8972,4.3445,3.2161-0.7218.97-5.1616-.662-7.9965-5.0218-2.7358-4.21.0318-10.8809-.9263-13.923-1.0483-3.3292-2.5477-4.4334-3.9582-4.4627-2.0687-.0432-5.6749,5.3433-1.7637,5.7232,1.8743,0.1817.7434-2.9849,1.9391-3.2326a5.4631,5.4631,0,0,1,.4422,3.1361C99.4035,30.59,98.01,31.5878,95.519,30.7364c-1.7027-.582-2.1132-2.4995-1.3368-5.2162,0.0127-.0432.0381-0.0915,0.0546-0.1372L94.228,25.38s0.141-.873-0.6684-0.5871c-0.85.3367-1.6684,0.6811-2.4651,1.0254a2.11,2.11,0,0,0-.77,2.3025c0.0051,0.0254.0165,0.0457,0.0216,0.0724a6.7645,6.7645,0,0,0,6.6381,5.13c2.8451-.2592,3.0179,0-0.474,1.5083a6.0512,6.0512,0,0,1-5.4424-.6811,0.3044,0.3044,0,0,0-.4486.1639,8.6734,8.6734,0,0,1-4.1412,4.3547,6.5886,6.5886,0,0,0,.3189.9988,3.2286,3.2286,0,0,0,.9619,1.5426,6.3341,6.3341,0,0,0,1.0229.8463,1.3813,1.3813,0,0,1,.6595.9492c0.2579,0.5439,0,.4892-0.1728.8781a0.7228,0.7228,0,0,1-.3456.4968,1.2561,1.2561,0,0,1-.9911-0.4536,2.46,2.46,0,0,1-.74-0.6417c-0.094-.2109-1.2-1.3419-1.4588-1.7294a13.862,13.862,0,0,1-.7268-2.1538c-0.25.1093-.51,0.2173-0.7815,0.3215-0.183.07-.3558,0.122-0.5337,0.1817,0.0851,0.3164.1,0.78,0.2186,1.305a4.2191,4.2191,0,0,0,.6112,1.8146,2.4941,2.4941,0,0,0,1.0826,1.3558,5.8523,5.8523,0,0,0,1.1932.845c0.5045,0.136.6176,0.2961,0.5744,0.4676a3.1067,3.1067,0,0,0,0,.6468s-0.6036.13-.9479,0.2109a4.5161,4.5161,0,0,1-1.5083-.5985c-0.82-.3012-1.0356-1.2072-1.4143-1.2326s-1.2593-1.87-1.272-2.3889a11.6164,11.6164,0,0,0-.4892-1.9226,9.2227,9.2227,0,0,1-1.122.1233,11.991,11.991,0,0,0,.01,2.0585c0.1525,1.5083.493,1.25,1.3507,2.6354s0.91,0.2961,1.3508.9-0.1067.7777-.1067,0.7777a5.9044,5.9044,0,0,1-2.1017-.352,8.2521,8.2521,0,0,1-2.1119-3.2276,7.9144,7.9144,0,0,1-.0762-2.8972c-2.6456-.4981-4.1984-2.5363-4.45-5.2937a3.1777,3.1777,0,0,1,.2859-1.6c0.0038-.01.0013-0.0152,0.0051-0.0241,0.5311-1.3063-1.568-1.3584-1.568-1.3584l-0.0013-.0025c-0.68.0521-1.3851,0.0813-2.1055,0.0978l-0.0178.0025c-1.394.0534-.737,0.9848-0.737,0.9848,1.3368,1.1169,1.2936,3.5376,1.4232,4.3572S71.466,40.22,70.7354,40.3924s-0.4765-2.3279-.4333-3.4474-0.906-2.2-2.2606-3.0319-3.6456-.7192-5.1971-0.59a5.0288,5.0288,0,0,0-4.0522,2.2834,13.4384,13.4384,0,0,0-1.6379,6.4666c0.0864,2.1551.56,4.009,0.9047,6.5517,0,0-.1639,4.0878-0.3545,4.6418-0.4968,1.446-1.3088,3.1628-.2478,3.5058,1.4651,0.474,2.7587-5.8642,1.6811-10.2265-0.8374-3.39-1.4549-6.6826.0966-9.182a6.0041,6.0041,0,0,1,7.0587-2.4893,5.0092,5.0092,0,0,1,3.103,5.6775,7.4008,7.4008,0,0,1-5.8617,5.1844s-0.0292,0-.0737-0.0025c-0.0521.1347-.16,0.4079-0.1817,0.4651a0.5193,0.5193,0,0,0,.1487.4384,3.9456,3.9456,0,0,0,.9467.8628,3.0345,3.0345,0,0,0,.6468,0,2.0386,2.0386,0,0,1,.69-0.15,0.8427,0.8427,0,0,1,.13.4524,0.3893,0.3893,0,0,1-.1944.3838c-0.1728.047-.56,0.047-0.7764,0.1118a1.3793,1.3793,0,0,1-.934,0,3.05,3.05,0,0,0-.5311-0.3876,1.1009,1.1009,0,0,1-.5388-0.582,5.4306,5.4306,0,0,1-.2376-1.13,2.0722,2.0722,0,0,1,.0267-0.7167,2.4327,2.4327,0,0,1-1.028-1.1017c-0.69-1.3851.2465-3.6761,0.4193-4.8833s1.3152-1.3787,2.2631-.2579-2.78,6.3687,1.52,3.75c2.43-1.4791,3.9442-9.0207-3.9442-6.0447-3.037,1.1449-2.2631,6.8185-1.2288,9.5366,0.8056,2.1144.3062,7.417-.1588,10.1185,0.6684-.1118,1.4422-0.2592,1.4422-0.2592a2.0384,2.0384,0,0,1,.56,0c0.3228,0.0432,1.1843.1538,1.4,0.1855a1.6214,1.6214,0,0,0,.6684,0,4.999,4.999,0,0,1,1.13-.0216c-1.0864-4.2314,1.319-7.6852,6.5059-10.5823,3.8578-2.1538,6.1489,1.1042,8.656,4.1628a4.7419,4.7419,0,0,1,1.0115-1.765c0.3393-.033.5019,0.1131,0.1944,0.582a17.3552,17.3552,0,0,0-.83,1.6367c0.0851,0.1017.17,0.2008,0.2554,0.3012,0.0229-.0381.047-0.0788,0.0648-0.1042a7.6933,7.6933,0,0,1,1.2122-1.7917c0.2579-.0165.63-0.0648,0.5489,0.291a23.0082,23.0082,0,0,1-1.2529,2.2529,13.4443,13.4443,0,0,0,1.4257,1.3685c0.6595-1.2161,2.3165-4.1984,2.5122-4.342,0.2427-.1779,1.0674-0.3393,1.18,0a3.6535,3.6535,0,0,1-.9378,1.5833c-0.0369,0-1.5007,2.1513-2.1945,3.1729a6.7031,6.7031,0,0,0,.6849.4168c4.5707,2.3838,11.3524,1.08,11.3524,1.08,3.4626-1.02,2.8832,1.3126-.2668,4.0294a2.2658,2.2658,0,0,0,1.2847,1.53c1.502,0.5832,2.7714-.8183,3.5923-1.446s0.5261-.8348.2618-1.1449-0.7472.2465-1.2465-.21-0.2275-.4333-0.2275-0.4333,1.1309-.7345,1.6837-0.4613a2.5631,2.5631,0,0,1,1.2033,1.6862c0.202,0.784-1.5934,2.6888-3.5389,3.7638s-3.0878.9162-4.6736-.1512a2.8656,2.8656,0,0,1-1.0089-1.1716,28.4118,28.4118,0,0,1-3.1831,1.7345c0.0775,0.1334.1639,0.2618,0.2338,0.399a8.7761,8.7761,0,0,0,.3558,1.1767,1.3873,1.3873,0,0,1,.277.6811,5.5859,5.5859,0,0,0,.263.8183,2.1187,2.1187,0,0,0,.6226.3494,0.0614,0.0614,0,0,1,.0457.0432,0.477,0.477,0,0,1,.0457-0.0152,2.967,2.967,0,0,0,.3609-0.1639,2.0675,2.0675,0,0,0,1.1017-1.0966c0.1309-.2757.0978-0.0534,0.0216-0.263a5.8359,5.8359,0,0,0-.3672-0.67,1.7994,1.7994,0,0,1-.2719-0.9378c-0.5718,0,.0241-0.4676.3342-0.4676,0.5426,0,.4371.3329,0.5693,0.7472a4.15,4.15,0,0,1,.6392,1.366,2.73,2.73,0,0,1-.9454,1.2834,4.44,4.44,0,0,1-1.5528.6938,1.6771,1.6771,0,0,1-1.75-1.549,0.6037,0.6037,0,0,0-.3113-0.554c-0.2745-.2618-0.2059-0.1487-0.2008-0.4892a0.9283,0.9283,0,0,0,.0229-0.507,2.2534,2.2534,0,0,0-.2389-0.4549c-0.0076-.014-0.0165-0.0279-0.0254-0.0419a28.1534,28.1534,0,0,1-9.548,2.32c-8.1261.4727-11.5913-2.6075-13.5164-7.3357a8.1331,8.1331,0,0,0-1.1563-.1487,13.6008,13.6008,0,0,0-2.3063.2745,3.5911,3.5911,0,0,1-1.2072.0915c-0.2262-.033-0.7828-0.0572-1.2631-0.0724a1.9074,1.9074,0,0,1-.0623.18c-0.4308.9492-.399,4.0522-0.4841,5.7766s-0.1728,4.2238-1.6379,3.2759c-1.13-.7306-0.6722-3.2009.0318-5.835a1.5773,1.5773,0,0,0-.2452-1.3253,2.9359,2.9359,0,0,0-1.0369-.9429c-1.2072-.6036-3.5351-0.8628-4.7422,0s-4.0942,4.2187-6.38,4.4373a9.1453,9.1453,0,0,1-4.2619-.7789l0.0025,0.01s-1.4283-.6036-2.2021,2.38L39.18,65.162c-0.0775.3444-.1588,0.6862-0.2478,1.0254C36.2526,76.3721,33.17,85.0827,33.17,85.0827a3.1472,3.1472,0,0,0,3.6177,1.319c2.68-.5362,6.1654-11.37,13.402-14.5863s6.0574-3.5262,6.8617-2.1856-0.6976,9.1541-.6976,11.0309,3.4842,3.2161,4.8248,1.6074,5.3611-10.4527,8.041-10.4527,9.6484,4.02,15.0094,4.02S92.27,73.9591,92.27,73.9591s2.7688,1.52,1.9658,6.7016c-0.4447,2.8641-1.9658,10.81.446,12.15s4.02,1.6074,5.6292,0,4.8235-15.1,5.896-19.387,11.2787,1.1589,11.2787,1.1589,0.8666,10.3663,1.9378,12.2419c0.5528,0.967,2.3152,1.1512,3.8934,1.1017a2.5875,2.5875,0,0,0,2.4918-2.7943,35.89,35.89,0,0,1,3.7168-19.2129,21.2891,21.2891,0,0,0,1.6849-4.5669c5.5923-3.3025,18.7478-11.16,20.8483-13.261,2.68-2.68,5.539-5.1819,8.2188-5.1819a7.2875,7.2875,0,0,0,6.7906-6.9685c0.1779-4.4665-.5362-4.4665-1.9658-4.6457" transform="translate(-10.8011 -5.3971)" style="fill:#fff"/><path d="M41.4623,111.8051c-3.408-6.59-14.5774-16.9485-16.2357-18.0629-1.0953-.7345-4.6965.7154-5.4309,1.8107s0.075,3.8057,1.17,4.5415c1.5782,1.06,3.9112,2.6176,6.3382,4.3966l-4.5465,12.252a2.8446,2.8446,0,0,1-1.8234,1.4194,3.0182,3.0182,0,0,1-2.1805-.0762l-3.7778-1.6112a3.0243,3.0243,0,0,1-.9073-0.5972c-0.629-.6023-0.8234-0.9632-1.5185.03-0.7573,1.08-1.3978,1.97-.3469,2.7663l5.8592,7.5225a1.9652,1.9652,0,0,1,.7116,2.2161l-6.8656,17.5686a4.1232,4.1232,0,0,1-1.0521,1.3622c-0.4447.4549,1.91,2.7866,2.9493,3.1856a0.9055,0.9055,0,0,0,.535.0254c0.9606,0,2.8794-2.2352,1.5363-1.5325L23.6853,128.7a1.3724,1.3724,0,0,1,1.9569-.7243l7.1693,4.9633c0.432,0.3266,2.0268,2.67,2.53,2.67a2.3852,2.3852,0,0,0,1.906-.9467c0.6544-.8641.2109-3.5084-0.2059-3.652l-3.2822-2.4258-6.356-5.478c-1.1563-1.0229-.8336-1.2631-0.615-2.3737a2.8333,2.8333,0,0,1,.136-0.4625l5.9875-11.2812a19.9266,19.9266,0,0,1,4.3064,5.0116c1.29,2.4918,3.4817,9.3231,5.6076,16.4974,0.2757,1.8984.596,3.9773,0.9416,6.0231a23.8529,23.8529,0,0,0,3.1767,8.4908c0.3926,1.4435.7383,2.7231,1.014,3.7651,0.2834,1.07.2452,1.55,1.3012,1.55,0.2033,0,1.4079.1461,1.62,0.1461,3.8451,0.01,1.8654-.9492,1.5274-2.2237-0.3177-1.1957-7.6369-30.0506-10.9445-36.4448" transform="translate(-10.8011 -5.3971)" style="fill:#fff"/><path d="M63.9409,125.7557l8-6.4221c1.0293-.8272.9619-1.8171,0.7624-5.0993-0.08-1.3164-8.1477,2.4042-9.1769,3.23L52.4945,128.8181c-1.0293.826-1.2249,1.2415-1.0953,2.74,0.2071,2.37.8692,2.1182,1.5693,2.1182a1.5539,1.5539,0,0,0,1.2631-.1258l5.8528-4.699v20.6335c0,1.319,3.3635.99,4.6825,0.99s0.0953-.99.0953-2.31Z" transform="translate(-10.8011 -5.3971)" style="fill:#fff"/><path d="M90.355,115.03l-7.5212,6.8249a12.3915,12.3915,0,0,0-4.5592-1.7688c-1.319,0,1.2859,2.0522,1.2859,3.3712v1.3673l-5.3827,4.8845c-1.028.8247-2.8184,0.7256-2.5516,3.1132,0.0839,0.7484-.1131,2.38.5871,2.38a2.3841,2.3841,0,0,0,1.4943-.5261l5.8528-3.9569v17.4454c0,1.319-.6493,2.3457.67,2.3457s4.1082-1.0267,4.1082-2.3457V127.4891l7.14-4.8274c1.0293-.826,3.0268-4.59,2.2008-5.619s-2.2949-2.8387-3.3241-2.0128" transform="translate(-10.8011 -5.3971)" style="fill:#fff"/><path d="M188.1175,144.4805c-0.3177-1.1957-7.66-26.28-10.9674-32.6759-3.408-6.5885-13.4058-12.097-15.0641-13.21-1.0941-.7357-5.8681-4.1374-6.6025-3.042s0.075,3.807,1.17,4.5415a38.3568,38.3568,0,0,1,5.8922,5.5974l-4.1005,11.0512a2.8446,2.8446,0,0,1-1.8234,1.4194,3.0117,3.0117,0,0,1-2.1805-.0762l-2.0255-.3863a3.0466,3.0466,0,0,1-.906-0.5985c-0.629-.6023-0.8234-0.9632-1.52.03-0.7561,1.0814-1.3978,1.97-.3456,2.7676l3.0522,3.0916c0.878,0.6074.3113,3.3623,0.15,4.0408l-5.0586,18.2611-7.5276-16.364s-4.1031-6.9812-6.0917-7.0511a1.8964,1.8964,0,0,0-.7141.1258c-1.8018.2363-6.0587,0.4943-7.816,0.859-2.0738.4295-4.4436,0.74-4.591,2.0344a5.0525,5.0525,0,0,0,1.1957,3.6164c0.47,0.5909,3.79.2821,6.5047-.1169l-5.6889,11.3549c-0.5489,1.2-2.4334,10.0347-1.2338,10.5849s2.0687,1.2224,2.6176.0241l8.0791-17.6144,0.1233-.2694c0.263-.5312.9289-1.6494,1.7917-1.4333,1.1233,0.2808,2.9061,3.1145,2.9061,3.1145l6.464,14.9548c0.39,0.9022.1233,1.9238,1.047,1.9238a13.1822,13.1822,0,0,0,2.2949,0c0.0254-.0114.047-0.033,0.0712-0.047a7.5109,7.5109,0,0,0,2.2733-.4587c0.2859-.0966,9.88-21.8305,9.88-21.8305,0.7764-1.43,7.5644,2.0242,7.5644,2.0242,0.432,0.3278,2.0267,2.67,2.53,2.67a2.3876,2.3876,0,0,0,1.906-.9454c0.6544-.8641.2109-3.51-0.2059-3.6532l-3.2822-2.4258-4.7943-3.2631c-1.1563-1.0216-.8336-1.2618-0.615-2.3724a2.7609,2.7609,0,0,1,.136-0.4625l4.4614-9.2a58.7818,58.7818,0,0,1,5.4525,7.891c1.4778,2.8578,4.2683,9.7424,6.7664,16.5826q0.08,0.4879.1627,0.9759a23.9141,23.9141,0,0,0,2.9849,8.1744c0.4791,1.51.8907,2.8946,1.2059,4.0827,0.2834,1.07.2453,1.549,1.3012,1.549,0.2033,0,1.9048-1.2821,2.117-1.2809,3.8439,0.0089,1.3914-3.2911,1.0534-4.5656" transform="translate(-10.8011 -5.3971)" style="fill:#fff"/><path d="M116.9811,141.5932v-4.8388s-1.1093-13.7654-2.6075-13.6244c-1.4829.1385-3.5567,3.0331-3.5961,3.0891l-8.2951,11.58s-2.1449,1.4854-2.2008-.13l-0.53-15.6842c0-1.32.8717-1.3889-.4486-1.3889s-3.9849,3.6024-3.9849,4.9214l-1.4435,19.9232c0.0152,1.3037.3723,5.5567,1.6773,5.5567l2.4105-.4867a2.5142,2.5142,0,0,0,2.0445-1.0509l9.8771-13.79c0.0508-.0712.8361-1.1525,1.4931-0.8348,0.6785,0.3278.826,2.2174,0.826,2.2174v7.2226a15.1891,15.1891,0,0,0,.8882,5.1171,16.4377,16.4377,0,0,1,.4994,8.9292l-0.0534.25c0.4613,0.6887,1.1906.4231,1.9607,0.4231,0.0407,0,.0877.0025,0.14,0.0076a1.87,1.87,0,0,0,1.9886-1.2262,3.04,3.04,0,0,1,.2122-0.5019,11.448,11.448,0,0,0,.39-8.5581,20.9536,20.9536,0,0,1-1.2478-7.1235" transform="translate(-10.8011 -5.3971)" style="fill:#fff"/><text transform="translate(33.7933 170.0351)" style="font-size:16.476289749145508px;fill:#fff;font-family:Lato">STEAK HOUSE</text><text transform="translate(60.1791 185.9619)" style="font-size:12.082612037658691px;fill:#fff;font-family:Lato">sin<tspan x="14.8735" y="0">c</tspan><tspan x="20.5342" y="0">e 2017</tspan></text></svg>